<?xml version="1.0"?>
<svg width="640" height="480" xmlns="http://www.w3.org/2000/svg" xmlns:svg="http://www.w3.org/2000/svg" xmlns:xlink="http://www.w3.org/1999/xlink">
 <!-- Created with SVG-edit - http://svg-edit.googlecode.com/ -->
 <defs>
  <symbol viewBox="0 0 49.652 49.652" height="49.652px" width="49.652px" y="0px" x="0px" id="svg_2" xmlns:xlink="http://www.w3.org/1999/xlink" xmlns="http://www.w3.org/2000/svg">
   <g>
    <g>
     <path d="m24.826,0c-13.689,0 -24.826,11.137 -24.826,24.826c0,13.688 11.137,24.826 24.826,24.826c13.688,0 24.826,-11.138 24.826,-24.826c0,-13.689 -11.136002,-24.826 -24.826,-24.826zm11.075001,19.143999c0.010998,0.246 0.016998,0.494001 0.016998,0.742001c0,7.551001 -5.745998,16.254999 -16.258999,16.254999c-3.227001,0 -6.231,-0.942997 -8.759001,-2.564999c0.447001,0.053001 0.902,0.079998 1.363,0.079998c2.678,0 5.141,-0.913998 7.097001,-2.445999c-2.5,-0.046 -4.611001,-1.698 -5.338,-3.969c0.348,0.066 0.707,0.103001 1.073999,0.103001c0.521,0 1.026999,-0.067999 1.506,-0.198999c-2.613999,-0.524 -4.582999,-2.833 -4.582999,-5.603001c0,-0.024 0,-0.049 0.001,-0.072001c0.77,0.427 1.650999,0.685001 2.587,0.714001c-1.532001,-1.023001 -2.541,-2.773001 -2.541,-4.754999c0,-1.048 0.281,-2.030001 0.773,-2.874001c2.817,3.458 7.029,5.732 11.776999,5.972c-0.098,-0.419001 -0.146999,-0.854 -0.146999,-1.302999c0,-3.155001 2.558001,-5.714001 5.712999,-5.714001c1.644001,0 3.126999,0.694 4.171001,1.804c1.302998,-0.256001 2.522999,-0.73 3.630001,-1.387c-0.43,1.335 -1.333,2.454 -2.516003,3.162001c1.157001,-0.138 2.261002,-0.444 3.282001,-0.899c-0.762001,1.143999 -1.730999,2.150999 -2.848,2.953999z"/>
    </g>
   </g>
   <g/>
   <g/>
   <g/>
   <g/>
   <g/>
   <g/>
   <g/>
   <g/>
   <g/>
   <g/>
   <g/>
   <g/>
   <g/>
   <g/>
   <g/>
  </symbol>
 </defs>
 <g>
  <title>Layer 1</title>
  <use fill="#ffffff" stroke="#ffffff" x="0" y="0" transform="matrix(3.2224280834198,0,0,3.2224280834198,0,0) " xlink:href="#svg_2" id="svg_3"/>
 </g>
</svg>