<svg id="Layer_1" data-name="Layer 1" xmlns="http://www.w3.org/2000/svg" viewBox="0 0 533.15 234.97">
  <defs>
    <style>
      .cls-1 {
        fill: #231f20;
      }
    </style>
  </defs>
  <title>missy-bur-1</title>
  <g>
    <path class="cls-1" d="M37.77,94q3.94,57.07,5,114.28c0,2,3.14,2,3.11,0q-1-57.2-5-114.28c-0.14-2-3.24-2-3.11,0h0Z" transform="translate(-23.36 -82.92)"/>
    <path class="cls-1" d="M23.66,99.13l21.68,29.41c4,5.45,9.36,14.84,17.59,12,3.06-1.07,5.3-3.78,7.07-6.37,3.34-4.89,6.11-10.25,9.1-15.36L98.77,85.23l-2.89-.78,5.37,138.82c0.08,2,3.18,2,3.11,0L99,84.45a1.57,1.57,0,0,0-2.89-.78L81,109.46l-8.07,13.76c-2.21,3.77-4.18,8.07-7.1,11.36-8.88,10-17.79-7.63-22.33-13.79L26.34,97.56c-1.17-1.59-3.87,0-2.68,1.57h0Z" transform="translate(-23.36 -82.92)"/>
    <path class="cls-1" d="M124.47,183.86C127.4,195.18,138,204,149.94,203.71s22.16-9.52,24.54-21h-3l3.42,22.72a1.56,1.56,0,0,0,2.28.93,306.39,306.39,0,0,0,34.27-28.63h-2.2a20.15,20.15,0,0,1,5.09,20.2,1.56,1.56,0,0,0,1.91,1.91,71.74,71.74,0,0,0,28.29-17.57l-2.65-1.1c-0.79,7.42,4.39,14.93,12,16s14.59-5,15.74-12.3l-2.84.37a193.48,193.48,0,0,1,15.3,47.19c3,15.95,4.89,33.53,1.59,49.57-2.9,14.09-11.89,28.91-26.91,32.27-13.83,3.09-30.47-7.28-27.66-22.8,3.56-19.67,25.83-23.9,42.51-22.76,2,0.14,2-3,0-3.11-16.14-1.1-34.87,2.12-43,17.93-6.59,12.82-.82,27,12.37,32.36,14,5.67,28.55-1.4,37.08-12.9,11.47-15.48,11.19-36.44,9.39-54.74a196.42,196.42,0,0,0-18-64.59,1.57,1.57,0,0,0-2.84.37c-0.91,5.82-6.12,10.89-12.32,10s-10-6.85-9.33-12.83c0.15-1.39-1.77-2-2.65-1.1a68.23,68.23,0,0,1-26.92,16.77l1.91,1.91a23.31,23.31,0,0,0-5.88-23.23,1.58,1.58,0,0,0-2.2,0,300.9,300.9,0,0,1-33.64,28.14l2.28,0.93-3.42-22.72c-0.23-1.52-2.7-1.44-3,0-2.11,10.14-11,18.4-21.54,18.71S130,193,127.46,183c-0.5-1.93-3.5-1.11-3,.83h0Z" transform="translate(-23.36 -82.92)"/>
    <path class="cls-1" d="M122,161.55a1.55,1.55,0,0,0,0-3.11,1.55,1.55,0,0,0,0,3.11h0Z" transform="translate(-23.36 -82.92)"/>
    <path class="cls-1" d="M348.44,90.67c3.74-.77,3.18,15.32,3.27,17.61l0.66,18,1.29,34.95,2.58,69.9c0.07,2,3.18,2,3.11,0l-3.06-82.88-1.51-40.94c-0.16-4.47,1.73-21.43-7.16-19.61-2,.4-1.13,3.4.83,3h0Z" transform="translate(-23.36 -82.92)"/>
    <path class="cls-1" d="M326.43,111c20.14-5.18,43.19-8.86,61.9,2.73,10,6.19,17.64,17.67,11.12,29.21C393.54,153.44,380,158,368.61,157.69l0.41,3.05c15-3.91,33.75-1.47,44.52,10.69,10.52,11.87,6.8,27.48-7.12,34.21-13.29,6.43-30.43,6.86-44.89,6.46a143.48,143.48,0,0,1-25.87-3c-7.15-1.52-13.63-4-18.38-9.83-1.27-1.55-3.45.66-2.2,2.2,8.51,10.36,23.39,11.83,35.88,13,15.6,1.52,31.92.88,47.21-2.77,9.48-2.26,19.43-7.29,23.25-16.83,4.44-11.07-1.15-22.69-10-29.69-11.95-9.48-28.87-11.26-43.27-7.5a1.56,1.56,0,0,0,.41,3.05c11.79,0.35,24.61-4.13,31.89-13.82s5.11-21.73-3.09-30c-18.71-19-48.57-14.87-71.8-8.9-1.93.5-1.11,3.49,0.83,3h0Z" transform="translate(-23.36 -82.92)"/>
    <path class="cls-1" d="M437.1,187.49c-1,6.91-4.77,20.32,6.66,19.76,9.64-.47,19.39-9.48,25.29-16.36l-2.65-1.1c-0.42,4.12-.66,9.06,2.12,12.49,3.16,3.91,8.26,3.24,12.64,2.26a116.08,116.08,0,0,0,37.22-15.9l-2.12-.56c2.52,4.14-.21,9.18,1.52,13.57,1.23,3.11,4,4.47,7.19,4.91,10.46,1.42,22.14-3,30.83-8.44,1.69-1.06.13-3.75-1.57-2.68-7.8,4.9-17.15,8.28-26.48,8.14-11.67-.17-4.88-10.61-8.81-17.06a1.57,1.57,0,0,0-2.12-.56,115.37,115.37,0,0,1-26.58,12.82c-4.37,1.44-10.56,4-15.17,3.37-6.33-.91-6.06-7.37-5.55-12.36a1.57,1.57,0,0,0-2.65-1.1,55.09,55.09,0,0,1-16.12,13.05,21.69,21.69,0,0,1-4.81,2c-3.06.77-5,.81-6.39-2.21-1.73-3.89,0-9.07.56-13.24,0.28-2-2.71-2.8-3-.83h0Z" transform="translate(-23.36 -82.92)"/>
  </g>
</svg>
