<svg width="580" height="400" xmlns="http://www.w3.org/2000/svg">
 <!-- Created with Method Draw - http://github.com/duopixel/Method-Draw/ -->
 <g>
  <title>background</title>
  <rect fill="#fff" id="canvas_background" height="402" width="582" y="-1" x="-1"/>
  <g display="none" overflow="visible" y="0" x="0" height="100%" width="100%" id="canvasGrid">
   <rect fill="url(#gridpattern)" stroke-width="0" y="0" x="0" height="100%" width="100%"/>
  </g>
 </g>
 <g>
  <title>Layer 1</title>
  <path d="m81.5,104c0,-1 0,-5 0,-7c0,-5 0,-7 0,-10c0,-4 0.881523,-5.190277 4,-7c1.933998,-1.122345 5.934822,-3.31131 10,-4c10.89019,-1.844933 22,-1 32,-1c11,0 20.007065,0.061615 29,-1c8.006668,-0.945183 14.880508,-2.251945 21,-5c4.912567,-2.206062 10.672867,-5.280266 15,-10c2.436584,-2.657646 4.789856,-6.078438 6,-9c0.855713,-2.065857 3,-4 3,-6c0,-1 0.189102,-1.981956 0,-1c-1.018372,5.287998 -6.978165,16.664898 -11,30c-5.324295,17.653664 -8.540237,36.126976 -14,55c-5.537003,19.140045 -11.329346,38.86467 -19,58c-8.361496,20.858704 -15.274246,38.820755 -25,54c-8.234924,12.852478 -13.979675,20.750946 -25,26c-6.572632,3.130585 -15.090385,4.121277 -22,3c-3.121445,-0.506531 -6,-2 -9,-4l-1,-2" id="svg_2" stroke-width="1.5" stroke="#000" fill="none"/>
  <path d="m238.5,68c0,1 0.742325,3.030663 0,12c-0.501709,6.062035 -0.916595,10.241646 -5,26c-0.793228,3.061172 -3.766037,17.052544 -5,22c-5.053101,20.259964 -7.487564,27.130447 -9,32c-4.517868,14.546097 -7.195206,17.908218 -9,22c-5.621017,12.74379 -6.789856,17.07843 -8,20c-1.711411,4.131714 -2.144287,6.934143 -3,9c-2.420303,5.843124 -1.847229,9.041321 -3,13c-1.768265,6.072327 -1.851944,9.228363 -3,12c-0.541199,1.306564 -1,1 -1,3c0,1 -2,3 -1,3c1,0 -0.348694,-7.008698 0,-14c0.500626,-10.037399 3,-22 5,-32c2,-10 5.561234,-17.140518 8,-24c2.551208,-7.175751 7.761414,-13.14183 12,-20c1.895554,-3.067062 2.693436,-6.458801 4,-7c0.923874,-0.38269 1,-1 2,-1c1,0 4,0 4,0c1,0 2.173096,-0.147263 3,1c2.614899,3.627991 3.2565,5.796997 4,7c1.662506,2.689987 1.486252,5.823746 2,8c0.689255,2.919754 0,6 0,7c0,1 0,4 0,6c0,2 0,6 0,8c0,1 -0.197083,3.009735 0,5c0.502441,5.074203 1.839813,7.012909 2,8c0.506546,3.121445 1.310745,4.080246 2,7c0.513748,2.176254 2,3 4,5c2,2 2.692551,3.186005 4,5c0.826904,1.147263 1.823746,1.486252 4,2c1.946503,0.459503 5,0 9,0c4,0 7,0 9,0c3,0 6.4505,-1.450485 9,-4c2.5495,-2.549515 5,-5 6,-6l0,-1l1,-1l1,-1" id="svg_3" stroke-width="1.5" stroke="#000" fill="none"/>
  <path d="m185.5,286c0,-2 -1,-9 -1,-18c0,-9 -1.148758,-16.133759 0,-21c1.027481,-4.352509 3.823746,-6.486252 6,-7c2.919754,-0.689255 7,0 13,0c5,0 10,3 16,9c7,7 11,13 14,19c2,4 3,8 4,11c1,3 2.076126,3.61731 3,4c1.306564,0.541199 3.174179,1.537231 7,0c7.480957,-3.00589 14.735779,-10.235413 21,-17c3.843536,-4.150574 8.486267,-6.823761 9,-9c0.229767,-0.973236 0.584717,-2.188751 0,-3c-1.84903,-2.565369 -7.98877,-2.069824 -14,-3c-6.987915,-1.081314 -15.077469,-1.96109 -21,-1c-3.121445,0.506546 -5.917526,4.056641 -8,7c-2.887863,4.081696 -5.493454,6.878571 -6,10c-0.800919,4.935425 0,11 0,17c0,6 0,15 2,23c1,4 2.331985,9.22937 4,13c1.458633,3.297333 2.486252,4.823761 3,7c0.459503,1.946503 1,4 1,8c0,2 0,5 0,8c0,2 -0.493454,4.878571 -1,8c-0.160187,0.987091 -1.458801,1.693451 -2,3c-0.38269,0.923889 0.292892,0.707092 1,0c0.707108,-0.707092 0,-2 -1,-3c-7,-7 -19.454041,-15.512756 -27,-23c-8.547882,-8.481354 -13.222733,-11.723999 -17,-15c-1.068375,-0.926605 -1,-2 3,-2c4,0 11.011169,-0.448334 20,0c10.037399,0.50061 17.318558,3.221283 23,6c6.477844,3.168213 10.293625,6.726501 14,11c3.276016,3.777283 5.337494,7.309998 7,10c1.487,2.406006 2.173096,2.852722 3,4c1.307465,1.813995 1.692535,3.186005 3,5c0.826904,1.147278 2.076111,2.61731 3,3c1.306549,0.541199 2.188751,1.584717 3,1c2.565369,-1.84903 2.404724,-7.74295 8,-17c6.481567,-10.723328 13.097626,-24.564453 17,-36c5.64032,-16.528351 6,-33 6,-48c0,-6 0,-12 0,-15c0,-1 -1,0 -1,4c0,11 0,25 0,49c0,22 0.232483,38.01474 1,58c0.500366,13.028809 1,21 1,25c0,2 0,1 0,-2c0,-3 0.2995,-6.004974 0,-15c-0.500275,-15.024963 -1,-31 -1,-47c0,-6 0.337494,-12.309998 2,-15c1.487,-2.406006 3.222717,-3.723999 7,-7c3.205109,-2.779785 5.21167,-4.714111 8,-7c3.281006,-2.689789 4.823761,-4.486267 7,-5c1.946503,-0.459503 4,-1 5,-1c1,0 3.118317,-0.471863 4,0c3.178925,1.701294 4.194092,6.88855 7,12c3.228058,5.880463 6.741058,12.726959 9,20c1.512421,4.869568 2,13 2,18c0,5 1.601593,10.217712 0,16c-1.556488,5.619385 -5.99411,10.519043 -9,18c-1.537231,3.825806 -3,7 -5,9c-1,1 -3,2 -5,2c-4,0 -7,0 -9,0c-3,0 -5,0 -7,0c-2,0 -4,0 -5,0c-2,0 -3.292908,-0.292908 -4,-1c-0.707092,-0.707092 1,-1 5,-1c5,0 14,0 24,0c9,0 16,0 24,0c4,0 9.106995,0.919006 13,0c2.176239,-0.513733 5.378754,-2.832092 7,-7c2.639221,-6.784882 4.998291,-15.912079 6,-33c1.17041,-19.965729 0.705627,-39.056244 -1,-56c-0.708221,-7.035522 -3.468719,-14.539764 -5,-22c-0.60321,-2.938736 -1,-6 -1,-9c0,-1 0,-3 0,-1c0,6 -1.296112,19.042053 0,39c1.503174,23.146057 6.271637,39.93454 10,56c3.236755,13.947174 4.848877,25.0466 8,35c1.908905,6.029602 3.496216,12.907776 4,17c0.244354,1.985016 0,3 1,3c2,0 0,-11 -6,-23c-4,-8 -9.999146,-18.511261 -15,-30c-5.048431,-11.597992 -6.918793,-24.012756 -9,-37c-0.962494,-6.006134 -1,-12 -1,-16c0,-2 -0.307465,-6.186005 1,-8c2.480713,-3.441803 6.518707,-6.541229 10,-11c3.58844,-4.595978 6.761475,-7.044418 12,-12c3.632263,-3.436081 8,-8 11,-10c3,-2 6,-3 8,-3c3,0 4.418854,-0.581146 6,1c1.581146,1.581146 3.288574,3.868286 5,8c1.210144,2.92157 3.115875,7.963837 4,11c1.152771,3.958679 2.497559,8.925781 3,14c0.394165,3.98053 0,9 0,13c0,3 -1.714111,5.21167 -4,8c-1.793182,2.187347 -6,4 -9,6c-3,2 -6.769928,3.548615 -11,5c-4.823029,1.654816 -10,1 -15,1c-5,0 -8,0 -11,0c-3,0 -3.692535,-1.186005 -5,-3c-0.826904,-1.147278 -1,-2 -2,-3l0,-1l0,-1l1,0" id="svg_4" stroke-width="1.5" stroke="#000" fill="none"/>
 </g>
</svg>